<?xml version="1.0" standalone="no"?>
<!DOCTYPE svg PUBLIC "-//W3C//DTD SVG 20010904//EN"
 "http://www.w3.org/TR/2001/REC-SVG-20010904/DTD/svg10.dtd">
<svg version="1.0" xmlns="http://www.w3.org/2000/svg"
 width="313.000000pt" height="313.000000pt" viewBox="0 0 313.000000 313.000000"
 preserveAspectRatio="xMidYMid meet">
<metadata>
Created by potrace 1.11, written by Peter Selinger 2001-2013
</metadata>
<g transform="translate(0.000000,313.000000) scale(0.100000,-0.100000)"
fill="#000000" stroke="none">
<path d="M1978 2637 c-22 -8 -198 -56 -228 -62 -8 -1 -14 -7 -13 -13 1 -5 -6
-8 -16 -5 -10 3 -22 0 -25 -6 -4 -6 -1 -11 6 -11 7 0 -6 -17 -28 -37 -70 -65
-133 -154 -139 -198 -1 -5 -8 -23 -15 -40 -7 -16 -14 -39 -15 -50 -2 -11 -6
-32 -8 -47 -3 -15 -1 -30 4 -34 7 -4 6 -10 0 -18 -10 -12 -8 -115 4 -235 5
-42 14 -71 26 -84 10 -12 19 -27 19 -34 0 -22 22 -55 77 -111 45 -47 58 -72
37 -72 -3 0 -2 5 1 10 7 11 -21 14 -96 11 -31 -1 -51 4 -59 14 -7 8 -10 15 -6
15 9 0 -34 83 -47 91 -5 4 -7 12 -3 18 5 7 1 9 -8 5 -19 -7 -22 12 -3 20 6 3
1 3 -13 0 -14 -4 -22 -3 -18 1 4 4 -2 15 -14 25 -16 13 -18 19 -8 25 8 5 11 4
7 -2 -4 -6 0 -14 8 -17 13 -4 13 -2 5 14 -6 11 -16 17 -24 14 -7 -3 -19 3 -27
13 -13 16 -12 17 4 4 9 -7 17 -10 17 -5 -1 14 -30 49 -38 46 -3 -2 -8 2 -11 9
-2 7 1 9 9 4 8 -5 11 -4 6 3 -4 6 -14 8 -23 5 -12 -5 -15 -2 -10 9 8 22 -3 30
-20 16 -11 -9 -12 -7 -6 7 5 15 3 17 -11 12 -12 -5 -16 -3 -13 5 2 7 -9 21
-25 30 -15 10 -28 21 -27 25 5 29 -3 42 -22 38 -22 -5 -79 45 -79 69 0 7 -14
23 -32 36 -20 15 -29 18 -26 8 4 -8 0 -15 -7 -15 -10 0 -11 7 -5 23 6 15 5 26
-2 30 -7 4 -8 3 -4 -4 4 -7 2 -12 -4 -12 -6 0 -8 -4 -5 -10 3 -5 1 -10 -5 -10
-7 0 -9 8 -5 20 5 14 2 20 -9 20 -9 0 -16 5 -16 11 0 5 6 7 13 3 7 -4 8 -3 4
2 -5 5 -16 9 -25 9 -9 0 -16 6 -14 13 2 9 -10 5 -30 -9 -18 -13 -27 -16 -21
-8 10 12 10 18 0 29 -10 12 -9 12 4 2 14 -10 18 -10 23 3 3 10 2 13 -5 10 -5
-4 -17 -1 -26 7 -12 9 -15 9 -9 1 4 -8 2 -13 -5 -13 -8 0 -7 -5 2 -17 12 -16
12 -17 -2 -5 -10 7 -14 21 -12 36 4 20 1 24 -20 24 -14 0 -35 9 -48 21 -13 11
-29 21 -36 21 -8 0 -11 5 -7 11 5 8 1 8 -13 0 -24 -12 -34 -5 -26 17 5 11 2
14 -10 9 -11 -4 -17 -1 -17 8 0 8 -8 15 -17 15 -16 0 -16 -2 -3 -11 13 -9 13
-10 0 -6 -8 2 -14 11 -14 19 1 8 -5 15 -12 15 -7 0 -10 -5 -7 -10 3 -5 -8 -2
-25 8 -17 10 -29 22 -26 27 3 4 -2 5 -10 2 -9 -3 -23 2 -32 11 -9 9 -23 14
-31 11 -9 -4 -11 -2 -7 6 5 8 2 9 -9 5 -9 -3 -19 -1 -23 5 -5 7 -2 8 6 3 9 -5
11 -4 6 3 -4 7 -16 12 -27 12 -10 0 -19 5 -19 10 0 6 -8 10 -19 10 -10 0 -24
7 -31 15 -7 9 -15 13 -18 11 -2 -3 -13 -1 -22 4 -13 7 -20 6 -24 -5 -3 -8 -1
-17 4 -20 6 -4 7 -13 1 -23 -4 -9 -6 -23 -3 -31 2 -8 0 -11 -5 -8 -5 3 -10 0
-10 -8 0 -8 4 -15 9 -15 4 0 8 -10 7 -22 0 -22 -1 -22 -9 -3 -7 15 -9 10 -7
-20 2 -22 0 -52 -4 -68 -5 -16 -4 -25 2 -22 5 4 9 1 9 -4 0 -6 -5 -11 -12 -11
-9 0 -9 -3 0 -12 13 -13 17 -32 4 -25 -10 7 -4 -131 8 -173 6 -19 11 -46 13
-60 1 -14 6 -31 11 -39 6 -10 5 -12 -2 -7 -18 11 -14 -10 3 -24 14 -12 14 -15
0 -30 -9 -10 -12 -20 -7 -21 5 -2 13 -19 17 -36 6 -29 4 -32 -12 -27 -13 4
-12 2 4 -8 17 -10 19 -17 12 -30 -8 -14 -6 -18 4 -18 8 0 17 -9 20 -20 3 -11
1 -20 -4 -20 -5 0 -9 7 -9 15 0 8 -4 15 -9 15 -6 0 -8 -9 -6 -21 3 -17 1 -19
-9 -9 -11 8 -15 8 -19 -2 -4 -10 -6 -10 -6 0 -1 6 -6 12 -12 12 -5 0 -8 -3 -6
-8 5 -7 -189 -6 -210 2 -6 3 -14 0 -17 -7 -3 -9 -5 -9 -5 1 -1 6 -9 12 -18 12
-14 0 -15 -2 -4 -9 9 -6 4 -10 -18 -13 -18 -3 -31 0 -32 6 0 6 -4 2 -8 -8 -4
-11 -5 -36 -1 -57 4 -20 8 -71 9 -113 1 -41 6 -89 11 -106 5 -19 5 -28 -1 -25
-13 9 -11 -2 5 -28 8 -12 17 -38 20 -57 12 -66 41 -160 48 -160 5 0 8 -5 8
-11 0 -5 -4 -7 -10 -4 -14 9 -13 5 11 -44 11 -24 23 -41 25 -38 3 3 -2 20 -11
39 -16 30 -16 31 -1 17 9 -8 18 -30 21 -49 5 -39 33 -98 55 -118 8 -8 10 -11
4 -8 -6 3 -2 -14 9 -39 11 -24 25 -41 30 -38 6 3 7 1 3 -6 -4 -6 8 -32 27 -59
19 -26 32 -54 30 -62 -4 -13 -3 -13 6 0 9 13 13 11 28 -10 10 -14 17 -29 15
-34 -2 -5 4 -6 13 -3 8 4 15 2 15 -4 0 -6 6 -9 13 -6 6 2 39 -20 71 -50 33
-29 63 -53 67 -53 5 0 30 -13 56 -28 43 -26 114 -48 136 -44 4 1 7 -2 7 -7 0
-5 7 -12 16 -15 14 -5 15 -4 5 8 -10 11 -9 14 2 12 8 -1 22 -8 31 -15 9 -7 16
-10 16 -7 0 4 9 2 19 -4 14 -7 22 -7 26 0 4 7 12 7 18 2 7 -4 30 -7 52 -6 54
2 117 4 135 4 56 -1 160 13 187 26 18 8 49 16 70 18 47 4 69 12 111 44 17 13
32 21 32 18 0 -4 11 1 25 10 14 9 22 21 18 27 -3 5 -1 7 5 3 6 -3 18 2 28 11
10 10 21 18 25 18 4 0 17 9 27 20 11 11 32 29 48 40 32 23 174 211 174 231 0
7 5 16 12 20 7 4 8 3 4 -4 -15 -24 2 -11 19 14 9 15 12 23 6 20 -20 -13 -11 3
17 29 22 21 23 25 7 20 -19 -6 -19 -6 1 12 17 15 20 23 12 38 -7 11 -7 15 -1
12 14 -9 37 38 29 58 -3 9 -2 13 4 10 6 -3 10 1 10 9 0 9 5 16 11 16 5 0 7 5
4 10 -4 6 -11 7 -17 4 -7 -4 -8 -2 -4 5 4 6 11 9 16 6 5 -3 11 -1 15 5 3 5 1
10 -5 10 -6 0 -8 5 -5 10 4 6 10 8 15 5 4 -3 6 3 3 13 -2 11 3 26 12 35 8 9
16 19 15 22 -2 31 2 45 12 42 7 -1 12 5 13 13 0 11 11 15 37 15 20 0 34 -3 32
-7 -11 -18 65 -19 171 -3 53 8 105 25 105 34 0 4 9 7 20 8 19 2 101 59 108 75
2 5 10 8 18 8 8 0 14 7 14 16 0 9 9 18 20 21 11 3 17 9 14 14 -3 5 2 9 10 9
15 0 21 12 17 34 -1 5 5 3 14 -4 13 -11 15 -10 10 2 -3 8 6 27 20 44 14 16 25
35 25 42 0 6 5 12 11 12 6 0 8 9 4 21 -5 13 -3 19 3 15 5 -3 13 1 16 10 4 10
2 13 -7 8 -6 -4 -3 2 7 14 11 12 16 25 13 29 -4 3 -7 0 -7 -7 0 -7 -2 -11 -5
-8 -3 3 2 18 11 34 17 29 35 39 339 186 91 44 109 60 79 72 -15 6 -15 4 -4
-11 8 -10 1 -6 -14 10 -15 15 -37 27 -49 27 -13 0 -50 7 -82 16 -33 9 -70 18
-83 19 -13 2 -28 8 -35 13 -15 12 -87 37 -107 37 -17 0 -39 41 -42 79 -1 14
-6 26 -11 26 -4 0 -5 5 -2 10 9 15 -15 49 -90 125 -41 42 -69 64 -77 59 -7 -4
-10 -3 -5 1 11 13 -23 44 -41 38 -8 -4 -13 -2 -9 3 3 6 -4 16 -16 24 -20 12
-21 12 -8 -4 12 -14 12 -16 -3 -10 -9 3 -16 9 -16 13 0 6 -61 41 -80 46 -3 1
-25 7 -49 14 -52 15 -269 21 -303 8z m72 -5 c0 -5 -7 -9 -15 -9 -8 0 -12 4 -9
9 3 4 9 8 15 8 5 0 9 -4 9 -8z m-494 -369 c-8 -15 -15 -25 -16 -21 0 12 23 58
27 54 3 -2 -2 -17 -11 -33z m-682 12 c-7 -16 -24 -21 -24 -6 0 8 7 13 27 20 1
1 0 -6 -3 -14z m97 -68 c-1 -12 -15 -9 -19 4 -3 6 1 10 8 8 6 -3 11 -8 11 -12z
m121 -81 c7 4 8 2 4 -4 -11 -18 -26 -14 -25 6 0 10 3 12 6 4 2 -6 10 -9 15 -6z
m103 -96 c3 -5 1 -10 -4 -10 -6 0 -11 5 -11 10 0 6 2 10 4 10 3 0 8 -4 11 -10z
m1829 1 c-9 -9 -34 -9 -34 -1 0 5 9 8 20 7 10 -1 17 -3 14 -6z m-74 -35 c0 -2
-7 -7 -16 -10 -8 -3 -12 -2 -9 4 6 10 25 14 25 6z m-805 -566 c3 -6 -1 -7 -9
-4 -18 7 -21 14 -7 14 6 0 13 -4 16 -10z m-181 -15 c-4 -8 -8 -15 -10 -15 -2
0 -4 7 -4 15 0 8 4 15 10 15 5 0 7 -7 4 -15z m-1600 -651 c3 -8 2 -12 -4 -9
-6 3 -10 10 -10 16 0 14 7 11 14 -7z"/>
<path d="M1145 2070 c3 -5 13 -10 21 -10 8 0 12 5 9 10 -3 6 -13 10 -21 10 -8
0 -12 -4 -9 -10z"/>
<path d="M1225 2011 c-3 -6 5 -15 17 -21 21 -10 21 -10 6 3 -10 8 -15 17 -11
20 3 4 4 7 0 7 -3 0 -8 -4 -12 -9z"/>
<path d="M350 1930 c-9 -6 -10 -10 -3 -10 6 0 15 5 18 10 8 12 4 12 -15 0z"/>
<path d="M1605 1647 c10 -15 20 -25 23 -22 3 3 -5 16 -17 28 l-23 22 17 -28z"/>
<path d="M1896 1125 c-3 -8 -1 -15 4 -15 6 0 10 7 10 15 0 8 -2 15 -4 15 -2 0
-6 -7 -10 -15z"/>
<path d="M410 670 c0 -5 5 -10 11 -10 5 0 7 5 4 10 -3 6 -8 10 -11 10 -2 0 -4
-4 -4 -10z"/>
</g>
</svg>
